<svg xmlns="http://www.w3.org/2000/svg" width="280" height="280" viewBox="0 0 280 280">
  <rect width="280" height="280" fill="#fff"/>
  <g fill="#a66b44"><rect x="120" y="20" width="20" height="20"/><rect x="160" y="20" width="20" height="20"/><rect x="120" y="40" width="20" height="20"/><rect x="140" y="60" width="20" height="20"/><rect x="40" y="80" width="20" height="20"/><rect x="60" y="80" width="20" height="20"/><rect x="80" y="80" width="20" height="20"/><rect x="120" y="80" width="20" height="20"/><rect x="160" y="80" width="20" height="20"/><rect x="40" y="100" width="20" height="20"/><rect x="80" y="100" width="20" height="20"/><rect x="100" y="100" width="20" height="20"/><rect x="140" y="100" width="20" height="20"/><rect x="220" y="100" width="20" height="20"/><rect x="60" y="120" width="20" height="20"/><rect x="120" y="120" width="20" height="20"/><rect x="140" y="120" width="20" height="20"/><rect x="180" y="120" width="20" height="20"/><rect x="200" y="120" width="20" height="20"/><rect x="220" y="120" width="20" height="20"/><rect x="20" y="140" width="20" height="20"/><rect x="60" y="140" width="20" height="20"/><rect x="120" y="140" width="20" height="20"/><rect x="200" y="140" width="20" height="20"/><rect x="220" y="140" width="20" height="20"/><rect x="20" y="160" width="20" height="20"/><rect x="40" y="160" width="20" height="20"/><rect x="80" y="160" width="20" height="20"/><rect x="100" y="160" width="20" height="20"/><rect x="120" y="160" width="20" height="20"/><rect x="160" y="160" width="20" height="20"/><rect x="180" y="160" width="20" height="20"/><rect x="220" y="160" width="20" height="20"/><rect x="100" y="180" width="20" height="20"/><rect x="120" y="180" width="20" height="20"/><rect x="140" y="180" width="20" height="20"/><rect x="160" y="180" width="20" height="20"/><rect x="220" y="180" width="20" height="20"/><rect x="180" y="200" width="20" height="20"/><rect x="100" y="220" width="20" height="20"/><rect x="160" y="220" width="20" height="20"/><rect x="180" y="220" width="20" height="20"/><rect x="200" y="220" width="20" height="20"/><rect x="220" y="220" width="20" height="20"/></g>
  <rect x="18" y="18" width="60" height="60" fill="none" stroke="#a66b44" stroke-width="8"/><rect x="40" y="40" width="16" height="16" fill="#a66b44"/><rect x="202" y="18" width="60" height="60" fill="none" stroke="#a66b44" stroke-width="8"/><rect x="224" y="40" width="16" height="16" fill="#a66b44"/><rect x="18" y="202" width="60" height="60" fill="none" stroke="#a66b44" stroke-width="8"/><rect x="40" y="224" width="16" height="16" fill="#a66b44"/>
</svg>